<?xml version="1.0" standalone="no"?>
<!DOCTYPE svg PUBLIC "-//W3C//DTD SVG 20010904//EN"
 "http://www.w3.org/TR/2001/REC-SVG-20010904/DTD/svg10.dtd">
<svg version="1.0" xmlns="http://www.w3.org/2000/svg"
 width="50.000000pt" height="50.000000pt" viewBox="0 0 400.000000 355.000000"
 preserveAspectRatio="xMidYMid meet">
<metadata>
Created by potrace 1.15, written by Peter Selinger 2001-2017
</metadata>
<g transform="translate(0.000000,355.000000) scale(0.100000,-0.100000)"
fill="#000000" stroke="none">
<path d="M1912 3531 c-22 -18 -22 -21 -22 -445 l0 -426 -850 0 c-560 0 -850
-3 -850 -10 0 -5 -9 -10 -20 -10 -11 0 -20 -4 -20 -10 0 -5 -9 -10 -20 -10
-11 0 -20 -4 -20 -10 0 -5 -7 -10 -16 -10 -18 0 -44 -24 -44 -41 0 -6 -10 -20
-22 -31 l-23 -20 0 -1188 0 -1188 21 -19 c11 -10 23 -26 27 -35 3 -10 12 -18
19 -18 8 0 20 -9 28 -20 8 -11 22 -20 32 -20 10 0 18 -4 18 -10 0 -7 623 -10
1850 -10 1227 0 1850 3 1850 10 0 6 8 10 18 10 10 0 24 9 32 20 8 11 20 20 28
20 7 0 16 8 19 18 4 9 16 25 27 35 l21 19 0 1188 0 1188 -22 20 c-13 11 -23
25 -23 31 0 17 -26 41 -44 41 -9 0 -16 5 -16 10 0 6 -9 10 -20 10 -11 0 -20 5
-20 10 0 6 -9 10 -20 10 -11 0 -20 5 -20 10 0 7 -255 10 -745 10 l-746 0 -24
-25 c-14 -13 -25 -31 -25 -40 0 -8 -4 -15 -10 -15 -15 0 -12 -53 6 -88 8 -18
22 -32 30 -32 8 0 14 -4 14 -10 0 -7 245 -10 715 -10 l715 0 25 -22 c14 -12
25 -30 25 -40 0 -10 5 -18 10 -18 7 0 10 -353 10 -1040 0 -687 -3 -1040 -10
-1040 -5 0 -10 -7 -10 -15 0 -9 -11 -27 -25 -40 l-24 -25 -1741 0 -1741 0 -24
25 c-14 13 -25 31 -25 40 0 8 -4 15 -10 15 -7 0 -10 353 -10 1040 0 687 3
1040 10 1040 6 0 10 8 10 18 0 10 11 28 25 40 l25 22 895 0 c590 0 895 3 895
10 0 6 9 10 20 10 13 0 20 7 20 20 0 11 5 20 10 20 7 0 10 175 10 506 0 506 0
507 -22 525 -16 15 -37 19 -88 19 -51 0 -72 -4 -88 -19z"/>
<path d="M410 2290 c0 -5 -9 -10 -20 -10 -13 0 -20 -7 -20 -20 0 -11 -4 -20
-10 -20 -7 0 -10 -312 -10 -915 l0 -916 25 -24 c13 -14 31 -25 40 -25 8 0 15
-4 15 -10 0 -7 530 -10 1570 -10 1040 0 1570 3 1570 10 0 6 12 10 26 10 17 0
28 6 31 20 3 11 9 20 14 20 5 0 9 394 9 920 0 607 -3 920 -10 920 -5 0 -10 9
-10 20 0 16 -7 20 -30 20 -16 0 -30 5 -30 10 0 7 -533 10 -1580 10 -1047 0
-1580 -3 -1580 -10z m480 -380 l0 -170 -160 0 -160 0 0 170 0 170 160 0 160 0
0 -170z m500 0 l0 -170 -140 0 -140 0 0 170 0 170 140 0 140 0 0 -170z m500 0
l0 -170 -140 0 -140 0 0 170 0 170 140 0 140 0 0 -170z m500 0 l0 -170 -140 0
-140 0 0 170 0 170 140 0 140 0 0 -170z m500 0 l0 -170 -140 0 -140 0 0 170 0
170 140 0 140 0 0 -170z m540 -310 l0 -480 -410 0 -410 0 0 210 0 210 225 0
226 0 24 25 25 24 0 246 0 245 160 0 160 0 0 -480z m-2540 -270 l0 -210 -160
0 -160 0 0 210 0 210 160 0 160 0 0 -210z m500 0 l0 -210 -140 0 -140 0 0 210
0 210 140 0 140 0 0 -210z m500 0 l0 -210 -140 0 -140 0 0 210 0 210 140 0
140 0 0 -210z m500 0 l0 -210 -140 0 -140 0 0 210 0 210 140 0 140 0 0 -210z
m-1500 -600 l0 -170 -160 0 -160 0 0 170 0 170 160 0 160 0 0 -170z m2000 0
l0 -170 -890 0 -890 0 0 170 0 170 890 0 890 0 0 -170z m540 0 l0 -170 -160 0
-160 0 0 170 0 170 160 0 160 0 0 -170z"/>
</g>
</svg>
